<svg width="33" height="32" viewBox="0 0 33 32" fill="none" xmlns="http://www.w3.org/2000/svg">
<path d="M16.5 0C7.38375 0 0 7.3411 0 16.4047C0 23.6638 4.72312 29.795 11.2819 31.9687C12.1069 32.1122 12.4162 31.6201 12.4162 31.1894C12.4162 30.7998 12.3956 29.508 12.3956 28.1341C8.25 28.8928 7.1775 27.1293 6.8475 26.2065C6.66187 25.7349 5.8575 24.279 5.15625 23.8893C4.57875 23.5818 3.75375 22.823 5.13563 22.8025C6.435 22.782 7.36313 23.9919 7.6725 24.484C9.1575 26.9652 11.5294 26.268 12.4781 25.8374C12.6225 24.7711 13.0556 24.0534 13.53 23.6433C9.85875 23.2332 6.0225 21.8183 6.0225 15.5435C6.0225 13.7594 6.66188 12.283 7.71375 11.1347C7.54875 10.7246 6.97125 9.04309 7.87875 6.78745C7.87875 6.78745 9.26063 6.35682 12.4162 8.46893C13.7362 8.09982 15.1388 7.91527 16.5413 7.91527C17.9438 7.91527 19.3463 8.09982 20.6663 8.46893C23.8219 6.33632 25.2038 6.78745 25.2038 6.78745C26.1113 9.04309 25.5338 10.7246 25.3688 11.1347C26.4206 12.283 27.06 13.7389 27.06 15.5435C27.06 21.8388 23.2031 23.2332 19.5319 23.6433C20.13 24.1559 20.6456 25.1402 20.6456 26.6781C20.6456 28.8723 20.625 30.6358 20.625 31.1894C20.625 31.6201 20.9344 32.1327 21.7594 31.9687C25.0351 30.8695 27.8816 28.7766 29.8981 25.9845C31.9145 23.1925 32.9994 19.842 33 16.4047C33 7.3411 25.6163 0 16.5 0Z" fill="#F8F8F8"/>
</svg>
