<svg width="221" height="50" viewBox="0 0 221 50" fill="none" xmlns="http://www.w3.org/2000/svg">
<path d="M125.844 21.4566C125.319 20.2553 124.624 19.1357 123.78 18.1323C122.533 16.6047 120.976 15.3586 119.212 14.4761C117.449 13.5936 115.519 13.0947 113.549 13.0122C111.578 12.9297 109.613 13.2655 107.782 13.9975C105.951 14.7294 104.296 15.841 102.925 17.259C101.555 18.677 100.5 20.3692 99.83 22.2244C99.1604 24.0795 98.891 26.0555 99.0398 28.0223C99.1886 29.9891 99.7521 31.902 100.693 33.6352C101.634 35.3685 102.932 36.8828 104.5 38.0783C105.506 38.8608 106.618 39.4968 107.803 39.9676C109.463 40.6484 111.241 40.999 113.036 41C116.74 40.9918 120.29 39.5147 122.908 36.8924C125.526 34.2701 126.997 30.7166 127 27.0109C127.003 25.0994 126.609 23.2082 125.844 21.4566ZM113.025 15.8506C114.637 15.8505 116.229 16.2028 117.69 16.883C117.334 17.037 116.959 17.1446 116.576 17.2031C115.313 17.3859 114.143 17.9723 113.241 18.8747C112.339 19.7772 111.753 20.9472 111.57 22.2103C111.49 22.9186 111.168 23.5776 110.658 24.076C110.149 24.5745 109.483 24.8817 108.773 24.9461C107.51 25.129 106.341 25.7154 105.438 26.6178C104.536 27.5202 103.95 28.6902 103.767 29.9533C103.705 30.6268 103.418 31.2598 102.952 31.7497C102.147 30.0496 101.786 28.1735 101.901 26.2962C102.017 24.4189 102.605 22.6012 103.611 21.0124C104.618 19.4236 106.01 18.1152 107.657 17.2091C109.305 16.303 111.155 15.8286 113.036 15.83L113.025 15.8506ZM104.49 34.2378C104.614 34.1242 104.737 34.021 104.861 33.8971C105.779 33.0066 106.369 31.8311 106.533 30.5624C106.6 29.8492 106.918 29.1831 107.431 28.6834C107.925 28.1695 108.589 27.8537 109.299 27.7956C110.562 27.6127 111.732 27.0263 112.634 26.1239C113.536 25.2215 114.122 24.0514 114.305 22.7884C114.35 22.0425 114.67 21.3397 115.203 20.8165C115.709 20.3125 116.379 20.0082 117.092 19.9596C118.252 19.8 119.334 19.2841 120.188 18.4833C121.161 19.2907 121.985 20.262 122.624 21.3534C122.585 21.4063 122.54 21.4548 122.49 21.4979C121.997 22.0164 121.334 22.3391 120.622 22.4064C119.358 22.5861 118.186 23.1714 117.283 24.0744C116.381 24.9774 115.795 26.1492 115.616 27.4136C115.543 28.1243 115.227 28.788 114.721 29.2922C114.215 29.7966 113.55 30.1103 112.839 30.1804C111.573 30.3618 110.399 30.9471 109.492 31.8491C108.584 32.7512 107.992 33.9219 107.803 35.1876C107.747 35.6921 107.574 36.1766 107.297 36.602C106.238 35.973 105.29 35.1744 104.49 34.2378ZM113.025 38.2228C111.978 38.224 110.936 38.078 109.929 37.7892C110.273 37.1471 110.497 36.4472 110.589 35.7244C110.662 35.0153 110.976 34.3528 111.48 33.8487C111.984 33.3447 112.647 33.0299 113.356 32.9576C114.62 32.7768 115.792 32.1913 116.696 31.2887C117.6 30.3862 118.188 29.2149 118.372 27.9504C118.444 27.2413 118.759 26.5788 119.262 26.0747C119.766 25.5707 120.429 25.256 121.138 25.1836C122.089 25.0598 122.996 24.7054 123.78 24.1512C124.215 25.8009 124.266 27.5283 123.93 29.201C123.595 30.8737 122.88 32.4473 121.842 33.8008C120.803 35.1543 119.469 36.2521 117.941 37.0097C116.412 37.7672 114.731 38.1646 113.025 38.1712V38.2228Z" fill="white"/>
<path d="M2.32 40V11.2H28.6V14.44H5.56V23.96H24.08V27.24H5.56V36.76H28.6V40H2.32ZM32.465 40V39.96L42.145 28.2L32.465 16.84V16.8H36.785L44.305 25.6L51.865 16.8H56.145V16.84L46.465 28.2L56.185 39.96V40H51.865L44.305 30.72L36.785 40H32.465ZM60.4803 49.2V16.8H79.2803C80.1603 16.8 80.9603 17.0267 81.6803 17.48C82.427 17.9067 83.0136 18.4933 83.4403 19.24C83.8936 19.96 84.1203 20.76 84.1203 21.64V35.16C84.1203 36.04 83.8936 36.8533 83.4403 37.6C83.0136 38.32 82.427 38.9067 81.6803 39.36C80.9603 39.7867 80.1603 40 79.2803 40H63.7603V49.2H60.4803ZM65.3603 36.72H79.2803C79.707 36.72 80.067 36.5733 80.3603 36.28C80.6803 35.96 80.8403 35.5867 80.8403 35.16V21.64C80.8403 21.2133 80.6803 20.8533 80.3603 20.56C80.067 20.24 79.707 20.08 79.2803 20.08H65.3603C64.9336 20.08 64.5603 20.24 64.2403 20.56C63.9203 20.8533 63.7603 21.2133 63.7603 21.64V35.16C63.7603 35.5867 63.9203 35.96 64.2403 36.28C64.5603 36.5733 64.9336 36.72 65.3603 36.72ZM91.8028 40C90.9228 40 90.1095 39.7867 89.3628 39.36C88.6428 38.9067 88.0561 38.32 87.6028 37.6C87.1761 36.8533 86.9628 36.04 86.9628 35.16V9.2H90.2428V35.16C90.2428 35.5867 90.3895 35.96 90.6828 36.28C91.0028 36.5733 91.3761 36.72 91.8028 36.72H95.7228V40H91.8028ZM131.728 40V21.64C131.728 20.76 131.942 19.96 132.368 19.24C132.822 18.4933 133.408 17.9067 134.128 17.48C134.875 17.0267 135.688 16.8 136.568 16.8H149.608V20.08H136.568C136.142 20.08 135.768 20.24 135.448 20.56C135.155 20.8533 135.008 21.2133 135.008 21.64V40H131.728ZM156.997 40C156.117 40 155.304 39.7867 154.557 39.36C153.837 38.9067 153.251 38.32 152.797 37.6C152.371 36.8533 152.157 36.04 152.157 35.16V21.64C152.157 20.76 152.371 19.96 152.797 19.24C153.251 18.4933 153.837 17.9067 154.557 17.48C155.304 17.0267 156.117 16.8 156.997 16.8H170.917C171.824 16.8 172.637 17.0267 173.357 17.48C174.104 17.9067 174.691 18.4933 175.117 19.24C175.571 19.96 175.797 20.76 175.797 21.64V30.04H155.437V35.16C155.437 35.5867 155.584 35.96 155.877 36.28C156.197 36.5733 156.571 36.72 156.997 36.72H175.797V40H156.997ZM155.437 26.76H172.477V21.64C172.477 21.2133 172.317 20.8533 171.997 20.56C171.704 20.24 171.344 20.08 170.917 20.08H156.997C156.571 20.08 156.197 20.24 155.877 20.56C155.584 20.8533 155.437 21.2133 155.437 21.64V26.76ZM179.653 40V39.96L191.733 25.6L179.653 11.24V11.2H183.813L193.853 23.08L203.853 11.2H208.013V11.24L195.933 25.6L208.053 39.96V40H203.853L193.853 28.12L183.813 40H179.653ZM212.433 40V36.72H215.713V40H212.433Z" fill="white"/>
</svg>
