<svg width="75" height="75" viewBox="0 0 75 75" fill="none" xmlns="http://www.w3.org/2000/svg">
<path d="M71.9036 22.6516C70.4967 19.4337 68.6348 16.4349 66.3745 13.7471C63.0335 9.65534 58.864 6.31768 54.1404 3.95387C49.4168 1.59009 44.2462 0.253726 38.9692 0.0327459C33.6922 -0.188235 28.4282 0.711173 23.5235 2.67182C18.6191 4.63243 14.1853 7.60982 10.514 11.408C6.84267 15.2061 4.01713 19.739 2.22334 24.7082C0.429542 29.6773 -0.291874 34.9702 0.106612 40.2382C0.505126 45.5065 2.01445 50.6305 4.5353 55.273C7.05615 59.9158 10.5314 63.9717 14.7322 67.174C17.4277 69.2699 20.4061 70.9736 23.5788 72.2346C28.027 74.0581 32.7879 74.9972 37.5952 75C47.5184 74.9782 57.028 71.0215 64.0398 63.9974C71.0513 56.9734 74.9928 47.4553 75 37.5293C75.0071 32.4092 73.953 27.3433 71.9036 22.6516ZM37.5676 7.63565C41.8847 7.63521 46.1497 8.57903 50.0635 10.401C49.1091 10.8135 48.1056 11.1016 47.0777 11.2583C43.6955 11.748 40.5624 13.3187 38.1459 15.7359C35.7294 18.1531 34.1591 21.2872 33.6695 24.6703C33.4547 26.5677 32.5919 28.3328 31.227 29.6679C29.8622 31.003 28.0787 31.826 26.1775 31.9986C22.7953 32.4883 19.6622 34.059 17.2457 36.4762C14.8292 38.8934 13.2589 42.0274 12.7693 45.4106C12.6036 47.2147 11.8341 48.9102 10.5853 50.2223C8.43076 45.6686 7.46288 40.6434 7.77173 35.6148C8.08059 30.5863 9.65615 25.7176 12.3518 21.4617C15.0474 17.206 18.7756 13.7015 23.1893 11.2745C27.6029 8.84738 32.5587 7.57661 37.5952 7.58034L37.5676 7.63565ZM14.7045 56.8869C15.0363 56.5827 15.368 56.3061 15.6998 55.9743C18.1593 53.5892 19.738 50.4405 20.1784 47.0422C20.3569 45.1318 21.2096 43.3476 22.5836 42.0092C23.9059 40.6326 25.6854 39.7867 27.5875 39.631C30.9696 39.1412 34.1027 37.5705 36.5193 35.1533C38.9358 32.7361 40.506 29.6021 40.9957 26.2189C41.1154 24.221 41.9724 22.3386 43.4008 20.9371C44.7558 19.5872 46.5522 18.7721 48.46 18.6418C51.5671 18.2142 54.465 16.8325 56.7537 14.6874C59.3599 16.8501 61.5677 19.4518 63.2782 22.3751C63.1731 22.5169 63.0526 22.6469 62.9188 22.7622C61.5992 24.151 59.8219 25.0155 57.9149 25.1958C54.5291 25.6769 51.3913 27.2449 48.9731 29.6635C46.5552 32.0823 44.9877 35.221 44.5067 38.6078C44.3118 40.5115 43.465 42.2893 42.1098 43.6399C40.7543 44.9908 38.9739 45.8312 37.07 46.019C33.6778 46.5048 30.5331 48.0725 28.1025 50.4886C25.6722 52.905 24.0856 56.0409 23.5788 59.431C23.4301 60.7824 22.9659 62.0802 22.2242 63.2195C19.3877 61.5349 16.8473 59.3956 14.7045 56.8869ZM37.5676 67.5612C34.7624 67.5642 31.9704 67.1732 29.2738 66.3997C30.1964 64.6797 30.796 62.805 31.0432 60.869C31.237 58.9695 32.0799 57.1949 33.4296 55.8449C34.7792 54.4948 36.5533 53.6517 38.4522 53.4578C41.8394 52.9736 44.9789 51.4053 47.4009 48.9876C49.8227 46.5701 51.3971 43.4328 51.8881 40.0458C52.0819 38.1462 52.9248 36.3717 54.2745 35.0217C55.6241 33.6716 57.3982 32.8284 59.2972 32.6346C61.8461 32.303 64.2756 31.3537 66.3745 29.8692C67.54 34.288 67.678 38.915 66.7781 43.3955C65.8782 47.8759 63.964 52.0909 61.1829 55.7165C58.4017 59.3419 54.8274 62.2824 50.7336 64.3116C46.6401 66.3408 42.1363 67.4052 37.5676 67.4229V67.5612Z" fill="white"/>
</svg>
