<svg width="75" height="92" viewBox="0 0 75 92" fill="none" xmlns="http://www.w3.org/2000/svg">
<path d="M37.1875 15.9375L39.44 13.685C38.8423 13.0881 38.0322 12.7528 37.1875 12.7528C36.3428 12.7528 35.5327 13.0881 34.935 13.685L37.1875 15.9375ZM37.1875 49.9375L34.935 52.19C35.5327 52.7869 36.3428 53.1222 37.1875 53.1222C38.0322 53.1222 38.8423 52.7869 39.44 52.19L37.1875 49.9375ZM26.435 22.185C25.872 22.7892 25.5654 23.5884 25.58 24.4142C25.5946 25.24 25.9291 26.0279 26.5131 26.6119C27.0971 27.1959 27.885 27.5304 28.7108 27.545C29.5366 27.5596 30.3358 27.253 30.94 26.69L26.435 22.185ZM43.435 26.69C43.7268 27.0032 44.0787 27.2544 44.4697 27.4286C44.8607 27.6028 45.2828 27.6965 45.7108 27.704C46.1388 27.7116 46.5639 27.6328 46.9608 27.4725C47.3577 27.3122 47.7182 27.0736 48.0209 26.7709C48.3236 26.4682 48.5622 26.1077 48.7225 25.7108C48.8828 25.3139 48.9616 24.8888 48.954 24.4608C48.9465 24.0328 48.8528 23.6107 48.6786 23.2197C48.5044 22.8287 48.2532 22.4768 47.94 22.185L43.435 26.69ZM30.94 39.185C30.6482 38.8718 30.2963 38.6206 29.9053 38.4464C29.5143 38.2722 29.0922 38.1785 28.6642 38.171C28.2362 38.1634 27.8111 38.2422 27.4142 38.4025C27.0173 38.5628 26.6568 38.8014 26.3541 39.1041C26.0514 39.4068 25.8128 39.7673 25.6525 40.1642C25.4922 40.5611 25.4134 40.9862 25.421 41.4142C25.4285 41.8422 25.5222 42.2643 25.6964 42.6553C25.8706 43.0463 26.1218 43.3982 26.435 43.69L30.94 39.185ZM47.94 43.69C48.2532 43.3982 48.5044 43.0463 48.6786 42.6553C48.8528 42.2643 48.9465 41.8422 48.954 41.4142C48.9616 40.9862 48.8828 40.5611 48.7225 40.1642C48.5622 39.7673 48.3236 39.4068 48.0209 39.1041C47.7182 38.8014 47.3577 38.5628 46.9608 38.4025C46.5639 38.2422 46.1388 38.1634 45.7108 38.171C45.2828 38.1785 44.8607 38.2722 44.4697 38.4464C44.0787 38.6206 43.7268 38.8718 43.435 39.185L47.94 43.69ZM0 37.1875V54.1875H6.375V37.1875H0ZM74.375 54.1875V37.1875H68V54.1875H74.375ZM34 15.9375V49.9375H40.375V15.9375H34ZM34.935 13.685L26.435 22.185L30.94 26.69L39.44 18.19L34.935 13.685V13.685ZM34.935 18.19L43.435 26.69L47.94 22.185L39.44 13.685L34.935 18.19ZM39.44 47.685L30.94 39.185L26.435 43.69L34.935 52.19L39.44 47.685ZM39.44 52.19L47.94 43.69L43.435 39.185L34.935 47.685L39.44 52.19ZM74.375 37.1875C74.375 27.3248 70.457 17.866 63.483 10.892C56.509 3.91796 47.0502 0 37.1875 0V6.375C45.3595 6.375 53.1968 9.62131 58.9752 15.3998C64.7537 21.1782 68 29.0155 68 37.1875H74.375ZM37.1875 91.375C42.071 91.375 46.9067 90.4131 51.4185 88.5443C55.9303 86.6754 60.0299 83.9362 63.483 80.483C66.9362 77.0299 69.6754 72.9303 71.5443 68.4185C73.4131 63.9067 74.375 59.071 74.375 54.1875H68C68 62.3595 64.7537 70.1968 58.9752 75.9752C53.1968 81.7537 45.3595 85 37.1875 85V91.375ZM0 54.1875C0 64.0502 3.91796 73.509 10.892 80.483C17.866 87.457 27.3248 91.375 37.1875 91.375V85C29.0155 85 21.1782 81.7537 15.3998 75.9752C9.62131 70.1968 6.375 62.3595 6.375 54.1875H0ZM6.375 37.1875C6.375 29.0155 9.62131 21.1782 15.3998 15.3998C21.1782 9.62131 29.0155 6.375 37.1875 6.375V0C27.3248 0 17.866 3.91796 10.892 10.892C3.91796 17.866 0 27.3248 0 37.1875H6.375Z" fill="white"/>
</svg>
