<svg width="52" height="83" viewBox="0 0 52 83" fill="none" xmlns="http://www.w3.org/2000/svg">
<path d="M13.7592 47.4449C14.0007 47.2033 14.2876 47.0117 14.6035 46.8809C14.9194 46.7502 15.258 46.6829 15.6 46.6829C15.942 46.6829 16.2806 46.7502 16.5965 46.8809C16.9124 47.0117 17.1993 47.2033 17.4408 47.4449L26 55.9887L34.5592 47.4449C35.0474 46.9578 35.7096 46.6842 36.4 46.6842C37.0904 46.6842 37.7526 46.9578 38.2408 47.4449C38.729 47.9319 39.0033 48.5925 39.0033 49.2812C39.0033 49.97 38.729 50.6306 38.2408 51.1176L27.8408 61.4926C27.5993 61.7342 27.3124 61.9258 26.9965 62.0566C26.6806 62.1873 26.342 62.2546 26 62.2546C25.658 62.2546 25.3194 62.1873 25.0035 62.0566C24.6876 61.9258 24.4007 61.7342 24.1592 61.4926L13.7592 51.1176C13.5171 50.8767 13.325 50.5905 13.1939 50.2753C13.0628 49.9602 12.9954 49.6224 12.9954 49.2812C12.9954 48.9401 13.0628 48.6023 13.1939 48.2872C13.325 47.972 13.5171 47.6858 13.7592 47.4449V47.4449ZM34.5592 35.5551C35.0474 36.0422 35.7096 36.3158 36.4 36.3158C37.0904 36.3158 37.7526 36.0422 38.2408 35.5551C38.729 35.0681 39.0033 34.4075 39.0033 33.7188C39.0033 33.03 38.729 32.3694 38.2408 31.8824L27.8408 21.5074C27.5993 21.2658 27.3124 21.0742 26.9965 20.9434C26.6806 20.8127 26.342 20.7454 26 20.7454C25.658 20.7454 25.3194 20.8127 25.0035 20.9434C24.6876 21.0742 24.4007 21.2658 24.1592 21.5074L13.7592 31.8824C13.5175 32.1235 13.3257 32.4098 13.1949 32.7249C13.0641 33.04 12.9967 33.3777 12.9967 33.7188C12.9967 34.0598 13.0641 34.3975 13.1949 34.7126C13.3257 35.0277 13.5175 35.314 13.7592 35.5551C14.0009 35.7963 14.2879 35.9876 14.6038 36.1181C14.9196 36.2486 15.2581 36.3158 15.6 36.3158C15.9419 36.3158 16.2804 36.2486 16.5962 36.1181C16.9121 35.9876 17.1991 35.7963 17.4408 35.5551L26 27.0113L34.5592 35.5551V35.5551ZM0 7.78125C0 5.71753 0.821782 3.73834 2.28457 2.27908C3.74735 0.819808 5.73131 0 7.8 0H44.2C46.2687 0 48.2526 0.819808 49.7154 2.27908C51.1782 3.73834 52 5.71753 52 7.78125V75.2188C52 77.2825 51.1782 79.2617 49.7154 80.7209C48.2526 82.1802 46.2687 83 44.2 83H7.8C5.73131 83 3.74735 82.1802 2.28457 80.7209C0.821782 79.2617 0 77.2825 0 75.2188V7.78125ZM7.8 5.1875C7.11044 5.1875 6.44912 5.46077 5.96152 5.94719C5.47393 6.43361 5.2 7.09334 5.2 7.78125V75.2188C5.2 75.9067 5.47393 76.5664 5.96152 77.0528C6.44912 77.5392 7.11044 77.8125 7.8 77.8125H44.2C44.8896 77.8125 45.5509 77.5392 46.0385 77.0528C46.5261 76.5664 46.8 75.9067 46.8 75.2188V7.78125C46.8 7.09334 46.5261 6.43361 46.0385 5.94719C45.5509 5.46077 44.8896 5.1875 44.2 5.1875H7.8Z" fill="white"/>
</svg>
